<svg xmlns="http://www.w3.org/2000/svg" xmlns:xlink="http://www.w3.org/1999/xlink" viewBox="0 0 980.81 122"><defs><style>.cls-1,.cls-3{fill:none;}.cls-2{clip-path:url(#clip-path);}.cls-3{stroke:#000;stroke-width:1.43px;}.cls-3,.cls-4,.cls-5{stroke-miterlimit:10;}.cls-4,.cls-5{fill:#009245;stroke-width:4px;}.cls-4{stroke:#009245;}.cls-5{stroke:#f15a24;}</style><clipPath id="clip-path" transform="translate(-0.61)"><rect class="cls-1" y="5.56" width="982" height="111"/></clipPath></defs><title>infonce-underlined_4</title><g id="Layer_2" data-name="Layer 2"><g id="Layer_1-2" data-name="Layer 1"><g class="cls-2"><path d="M6,65.62A21.76,21.76,0,0,0,9,58.4c1.26-5,2.62-9.27,4.85-11.75a2,2,0,0,1,1.87-.78c2.48,0,2.55,2.47,2.55,3a9.11,9.11,0,0,1-.18,1.33.23.23,0,0,0,.25.25,5,5,0,0,0,2.44-1c.65-.5,1-.86,1-2.33,0-1.94-1-3.41-3-3.41-1.15,0-4.31.29-7.83,3.84-2.87,3-4.56,9.41-5.24,12.1a23.68,23.68,0,0,1-2,5.75,15.61,15.61,0,0,1-1.69,2.48C1,68.71.61,69.35.61,69.53s.08.22.33.22A4.47,4.47,0,0,0,2.77,69,5.4,5.4,0,0,0,4.28,67.7a19,19,0,0,1,5.31,1,21.27,21.27,0,0,0,5.5,1c2.91,0,5.85-2.19,7-3.77A4.88,4.88,0,0,0,23,64a.23.23,0,0,0-.25-.25,4.27,4.27,0,0,0-2,.83c-1,.61-1.05.82-1.26,1.43a3.6,3.6,0,0,1-.54,1.08c-.29.43-.32.43-.86.43a23.85,23.85,0,0,1-5.89-1.18,18.29,18.29,0,0,0-4.78-.87A6.41,6.41,0,0,0,6,65.62" transform="translate(-0.61)"/><path d="M45.1,59.87c.25-.95.65-1.78,2.66-1.83.12,0,.5,0,.5-.55a.36.36,0,0,0-.38-.35c-.82,0-1.75.1-2.6.1-.6,0-2.06-.1-2.66-.1-.12,0-.5,0-.5.55,0,.33.33.35.55.35,1.18,0,1.61.4,1.61,1a2.13,2.13,0,0,1-.1.6L41.44,70.6l-6.36-13c-.2-.43-.25-.43-.85-.43H30.79c-.47,0-.8,0-.8.55,0,.35.3.35.83.35a8.71,8.71,0,0,1,1.6.13L29.06,71.58c-.22,1-.65,1.7-2.6,1.78a.46.46,0,0,0-.53.52.35.35,0,0,0,.37.38c.83,0,1.76-.1,2.61-.1.6,0,2.06.1,2.66.1a.47.47,0,0,0,.5-.53c0-.35-.3-.37-.58-.37-1.58-.06-1.58-.71-1.58-1.06a2.23,2.23,0,0,1,.1-.62l3.21-12.84,7.32,15c.2.4.3.43.55.43s.4-.08.53-.53L45.1,59.87" transform="translate(-0.61)"/><path d="M86.11,64.18c.5,0,1.18,0,1.18-.72s-.68-.71-1.22-.71H64.63c-.54,0-1.22,0-1.22.71s.68.72,1.19.72H86.11m0-7c.54,0,1.22,0,1.22-.71s-.68-.72-1.18-.72H64.6c-.51,0-1.19,0-1.19.72s.68.71,1.22.71Z" transform="translate(-0.61)"/><path d="M122.87,60.7c.61,0,1.25,0,1.25-.72s-.64-.72-1.25-.72H103.44c-.61,0-1.26,0-1.26.72s.65.72,1.26.72h19.43" transform="translate(-0.61)"/><path d="M145.38,67.7v0a13.17,13.17,0,0,0,2.84-2c0,.14-.29,1.72-.33,2h-2.51M132,47.59a5.23,5.23,0,0,0-.29-2h3.81a6,6,0,0,0-.4,2.34V65.37a5.69,5.69,0,0,0,.4,2.33h-3.81a5.18,5.18,0,0,0,.29-2Zm8.12,8.55a6.18,6.18,0,0,0,2-1.55v3a5.81,5.81,0,0,0-2-1.44Zm7-10.53v1.73a9.1,9.1,0,0,0-2-1.73ZM136.4,56.89a7.76,7.76,0,0,1,3.88.76,4.27,4.27,0,0,1,1.87,3.26c0,.51,0,1,.64,1s.61-.5.61-1.15V51c0-.57,0-1.15-.61-1.15s-.64.54-.64.83c-.22,4.63-3.88,4.88-5.75,4.92V48c0-2.41.68-2.41,1.54-2.41h1.73c4.85,0,7.25,2.48,7.47,5,0,.29.07.83.65.83s.61-.58.61-1.19V45.54c0-1.11-.08-1.18-1.19-1.18H128.82c-.64,0-1.22,0-1.22.64s.69.61,1,.61c2.05,0,2.19.29,2.19,2v18c0,1.69-.1,2-2,2-.54,0-1.15,0-1.15.61s.58.65,1.22.65h19c.68,0,1,0,1.15-.51,0,0,1-6,1-6.21a.63.63,0,0,0-.61-.64.67.67,0,0,0-.65.5c-.21.93-.57,2.44-3.2,4a10.65,10.65,0,0,1-5.67,1.62h-2c-.86,0-1.54,0-1.54-2.4Z" transform="translate(-0.61)"/><path d="M165,64.68l2.38-2.38c3.2-3.16,4.18-4.13,6.44-4.26.32,0,.62,0,.62-.52a.37.37,0,0,0-.35-.38c-.72,0-1.6.1-2.35.1s-2.26-.1-2.91-.1c-.2,0-.5.07-.5.55a.34.34,0,0,0,.37.35c.23,0,.86.08.86.63a1.81,1.81,0,0,1-.63,1c-.2.17-3.38,3.28-4.31,4.23L162.13,59a.87.87,0,0,1-.13-.35c0-.18.48-.58,1.33-.63.18,0,.53,0,.53-.55a.39.39,0,0,0-.43-.35c-.53,0-1.15.07-1.68.07l-1.63,0c-.42,0-1,0-1.48,0s-.95-.07-1.35-.07c-.12,0-.53,0-.53.55,0,.35.33.35.73.35,1.45,0,1.58.25,1.83.75l3.51,6.92-1.4,1.4c-.48.46-1.66,1.58-2.11,2.06-3.06,3-4.08,4.08-6.34,4.19-.35,0-.63,0-.63.55a.35.35,0,0,0,.35.35c.73,0,1.58-.1,2.33-.1.43,0,1.06,0,1.48,0s1,.08,1.43.08a.47.47,0,0,0,.53-.53c0-.35-.3-.37-.45-.37s-.78-.11-.78-.63.33-.73.88-1.28l5.09-5,3,5.94a1.77,1.77,0,0,1,.15.33c0,.15-.45.55-1.33.63-.23,0-.55,0-.55.55a.37.37,0,0,0,.42.35c.53,0,1.16-.08,1.68-.08l1.63,0c.43,0,1,0,1.48,0s.95.08,1.35.08c.13,0,.53,0,.53-.55,0-.35-.32-.35-.73-.35-1.45,0-1.57-.28-1.8-.71l-4-8" transform="translate(-0.61)"/><polyline points="193.56 113.83 204.19 113.83 204.19 111.6 195.79 111.6 195.79 8.35 204.19 8.35 204.19 6.12 193.56 6.12 193.56 113.83"/><path d="M211.56,44l-5.17.4v1.11c2.51,0,2.8.25,2.8,2V66.23c0,1.61-.4,1.61-2.8,1.61V69c1.18,0,3.08-.11,4-.11s2.66.07,4,.11V67.84c-2.41,0-2.8,0-2.8-1.61V44" transform="translate(-0.61)"/><path d="M224.18,68.45a4.69,4.69,0,0,1-4.1-2.4,10.78,10.78,0,0,1-.89-5.07,10.34,10.34,0,0,1,.86-4.92,4.82,4.82,0,0,1,4.09-2.4A4.71,4.71,0,0,1,228.2,56a9.9,9.9,0,0,1,.93,5,10.93,10.93,0,0,1-.79,4.82,4.63,4.63,0,0,1-4.16,2.65m7.94-7.18a8,8,0,1,0-15.91,0,8,8,0,1,0,15.91,0Z" transform="translate(-0.61)"/><path d="M242.08,75.53c-3.63,0-6.11-1.83-6.11-3.73a3.16,3.16,0,0,1,2.95-3.09H241c3.08,0,7.11,0,7.11,3.09,0,1.93-2.55,3.73-6.07,3.73m-5.17-11.35a2.66,2.66,0,0,1,.61-1.69,6.09,6.09,0,0,0,3.55,1.12,5.56,5.56,0,0,0,5.82-5.25,4.84,4.84,0,0,0-1.47-3.48,4.71,4.71,0,0,1,3.23-1.4,1.63,1.63,0,0,1,.36,0,1,1,0,0,0-.57,1,1,1,0,0,0,1,1.05,1,1,0,0,0,1-1.08,1.76,1.76,0,0,0-1.83-1.76,5.51,5.51,0,0,0-3.81,1.69,6,6,0,0,0-3.81-1.3,5.56,5.56,0,0,0-5.82,5.25,5,5,0,0,0,1.69,3.7,5,5,0,0,0-1.11,3,3.82,3.82,0,0,0,1.58,3.19c-2.16.61-3.3,2.16-3.3,3.6,0,2.58,3.55,4.56,7.93,4.56s8-1.83,8-4.64a4.6,4.6,0,0,0-2.34-4.09c-1.9-1-4-1-6.18-1-.89,0-2.44,0-2.69,0A2.35,2.35,0,0,1,236.91,64.18Zm4.16-1.4c-3.12,0-3.12-3.59-3.12-4.42a5.84,5.84,0,0,1,.57-3,3.12,3.12,0,0,1,2.55-1.44c3.13,0,3.13,3.59,3.13,4.42a5.85,5.85,0,0,1-.58,3A3.07,3.07,0,0,1,241.07,62.78Z" transform="translate(-0.61)"/><path d="M475.09,34.06h10c.79,0,.89,0,.89-.75,0-3.56-1.93-7-6.43-7-4.16,0-7.46,3.7-7.46,8.19a8.1,8.1,0,0,0,7.9,8.29,6.12,6.12,0,0,0,6-4.67.42.42,0,0,0-.46-.43c-.33,0-.4.22-.47.51a5.06,5.06,0,0,1-4.85,3.69,4.84,4.84,0,0,1-4.06-2.4c-1.07-1.72-1.07-4.1-1.07-5.39m0-.75c.22-5.35,3.23-6.25,4.45-6.25,3.7,0,4.06,4.85,4.06,6.25Z" transform="translate(-0.61)"/><path d="M497.41,33.92c1.07-1.37,2.44-3.13,3.3-4.06A5.54,5.54,0,0,1,505,28V26.88c-.94.07-2,.11-2.95.11-1.08,0-3-.08-3.45-.11V28a1,1,0,0,1,1,1.12,2,2,0,0,1-.54,1.25l-2.22,2.8-2.8-3.62c-.33-.36-.33-.43-.33-.65,0-.54.54-.86,1.26-.9V26.88c-.93,0-3.3.11-3.88.11-.75,0-2.44,0-3.41-.11V28c2.51,0,2.55,0,4.24,2.19l3.55,4.64-3.37,4.27a5.75,5.75,0,0,1-4.6,2.15v1.12c.93-.07,2.05-.11,3-.11s2.55.07,3.41.11V41.24a1,1,0,0,1-1-1.11c0-.79,1-2,3.23-4.56l2.73,3.59c.29.4.76,1,.76,1.19s-.33.86-1.3.89v1.12c1.08,0,3.09-.11,3.88-.11,1,0,2.37,0,3.45.11V41.24c-1.94,0-2.59-.07-3.41-1.11l-4.81-6.21" transform="translate(-0.61)"/><path d="M512.28,38.26v-8a5.41,5.41,0,0,1,4.64-2.87c2.62,0,4.81,3.16,4.81,7.22,0,4.35-2.51,7.36-5.17,7.36a4.47,4.47,0,0,1-3.77-2.19,1.86,1.86,0,0,1-.51-1.51m-.1-9.41V26.48l-5.17.4V28c2.55,0,2.8.22,2.8,1.8V46.6c0,1.61-.4,1.61-2.8,1.61v1.12c1.22,0,3.08-.11,4-.11s2.8.07,4.06.11V48.21c-2.41,0-2.81,0-2.81-1.61V40.24a4.89,4.89,0,0,0,4.42,2.51,8.09,8.09,0,0,0,8-8.15c0-4.56-3.48-8.12-7.51-8.12A6.44,6.44,0,0,0,512.18,28.85Z" transform="translate(-0.61)"/><path d="M546.73,54.62a.55.55,0,0,0-.14-.32A22.33,22.33,0,0,1,541,43.78a43.24,43.24,0,0,1-1.15-10.31c0-9.44,2.26-16,6.57-20.72.32-.33.32-.4.32-.47,0-.36-.29-.36-.43-.36-.54,0-2.48,2.16-2.94,2.69-3.67,4.35-6,10.82-6,18.82,0,5.1.9,12.32,5.6,18.39.36.43,2.69,3.16,3.34,3.16.14,0,.43,0,.43-.36" transform="translate(-0.61)"/><path d="M561.48,28h3.09c.72,0,1.08,0,1.08-.72,0-.39-.36-.39-1-.39h-3l.76-4.1a34.77,34.77,0,0,1,.86-3.73A2,2,0,0,1,565,17.83a2.63,2.63,0,0,1,1.76.65,2,2,0,0,0-1.94,1.93,1.25,1.25,0,0,0,1.33,1.26,2.06,2.06,0,0,0,2-2.15c0-1.66-1.65-2.48-3.12-2.48-1.22,0-3.48.64-4.56,4.2-.22.75-.32,1.11-1.19,5.64h-2.48c-.68,0-1.07,0-1.07.68,0,.43.32.43,1,.43h2.37l-2.69,14.19c-.65,3.48-1.26,6.75-3.12,6.75a2.56,2.56,0,0,1-1.73-.65,2,2,0,0,0,2-1.94,1.24,1.24,0,0,0-1.33-1.25,2.06,2.06,0,0,0-2,2.15c0,1.62,1.58,2.48,3.06,2.48,2,0,3.41-2.12,4-3.48a31.84,31.84,0,0,0,2-6.86L561.48,28" transform="translate(-0.61)"/><path d="M581.59,51c0-.11,0-.18-.61-.79-4.49-4.53-5.64-11.32-5.64-16.81,0-6.25,1.36-12.5,5.78-17,.47-.43.47-.5.47-.61a.33.33,0,0,0-.36-.36c-.36,0-3.59,2.44-5.71,7a26.09,26.09,0,0,0-2.26,11,26.05,26.05,0,0,0,2.37,11.2c2.15,4.42,5.24,6.76,5.6,6.76a.33.33,0,0,0,.36-.36" transform="translate(-0.61)"/><path d="M595.69,31.51c.22-.93,1-4.24,3.56-4.24a3.53,3.53,0,0,1,1.8.47,2.09,2.09,0,0,0-1.73,1.94,1.26,1.26,0,0,0,1.37,1.26,2,2,0,0,0,1.94-2.09c0-1.86-2.12-2.37-3.34-2.37-2.09,0-3.34,1.91-3.77,2.73a4,4,0,0,0-3.88-2.73c-3.74,0-5.79,4.64-5.79,5.53,0,.36.36.36.44.36.28,0,.39-.07.46-.39,1.22-3.81,3.59-4.71,4.82-4.71.68,0,1.93.33,1.93,2.41,0,1.11-.61,3.52-1.93,8.55C591,40.45,589.73,42,588.15,42a3.48,3.48,0,0,1-1.79-.46A2,2,0,0,0,588,39.56a1.23,1.23,0,0,0-1.32-1.26,2,2,0,0,0-2,2.08c0,1.65,1.8,2.37,3.38,2.37,2.37,0,3.66-2.51,3.77-2.73a4,4,0,0,0,3.88,2.73c3.7,0,5.74-4.63,5.74-5.53,0-.36-.32-.36-.43-.36-.32,0-.39.15-.46.4C599.43,41.1,597,42,595.84,42c-1.4,0-2-1.15-2-2.37a14.27,14.27,0,0,1,.61-3.16l1.22-4.92" transform="translate(-0.61)"/><path d="M614.58,33.38a26.27,26.27,0,0,0-2.37-11.21c-2.16-4.41-5.24-6.75-5.6-6.75a.34.34,0,0,0-.36.36c0,.11,0,.18.68.83,3.52,3.55,5.57,9.26,5.57,16.77,0,6.14-1.33,12.46-5.79,17-.46.43-.46.5-.46.61a.34.34,0,0,0,.36.36c.36,0,3.59-2.45,5.71-7a26.09,26.09,0,0,0,2.26-10.95" transform="translate(-0.61)"/><path d="M630.28,14.19c.18-.72.23-.8.78-.85.12,0,1,0,1.5,0a9.54,9.54,0,0,1,2.81.2c1.13.35,1.18,1.07,1.18,2a12.41,12.41,0,0,1-.18,2l0,.27c0,.25.18.38.43.38s.42-.23.47-.63l.68-4.78c0-.35-.3-.35-.75-.35H621.73c-.62,0-.67,0-.85.52l-1.58,4.44a2.67,2.67,0,0,0-.12.45c0,.1.05.35.42.35s.38-.13.53-.6c1.45-4,2.28-4.26,6.09-4.26h1c.75,0,.78,0,.78.25a2.15,2.15,0,0,1-.1.52l-3.31,13.19c-.22.92-.3,1.18-2.93,1.18-.9,0-1.13,0-1.13.55,0,.07,0,.35.43.35.7,0,1.45-.08,2.15-.08l2.16,0c.7,0,1.55,0,2.25,0s1.43.08,2.11.08c.2,0,.58,0,.58-.55,0-.35-.26-.35-1-.35-.48,0-1,0-1.46-.06-.85-.07-.9-.17-.9-.47a1.58,1.58,0,0,1,.1-.58l3.31-13.16" transform="translate(-0.61)"/><path d="M653.88,28H657c.72,0,1.08,0,1.08-.72,0-.39-.36-.39-1-.39h-3l.76-4.1a34.77,34.77,0,0,1,.86-3.73,2,2,0,0,1,1.69-1.22,2.63,2.63,0,0,1,1.76.65,2,2,0,0,0-1.94,1.93,1.25,1.25,0,0,0,1.33,1.26,2.06,2.06,0,0,0,2-2.15c0-1.66-1.65-2.48-3.12-2.48-1.22,0-3.48.64-4.56,4.2-.22.75-.32,1.11-1.19,5.64h-2.48c-.68,0-1.07,0-1.07.68,0,.43.32.43,1,.43h2.37l-2.69,14.19c-.65,3.48-1.26,6.75-3.12,6.75a2.56,2.56,0,0,1-1.73-.65,2,2,0,0,0,2-1.94,1.24,1.24,0,0,0-1.33-1.25,2.06,2.06,0,0,0-2,2.15c0,1.62,1.58,2.48,3.06,2.48,2,0,3.41-2.12,4.05-3.48a31.84,31.84,0,0,0,2-6.86L653.88,28" transform="translate(-0.61)"/><path d="M680,51c0-.11,0-.18-.61-.79-4.49-4.53-5.64-11.32-5.64-16.81,0-6.25,1.36-12.5,5.78-17,.47-.43.47-.5.47-.61a.33.33,0,0,0-.36-.36c-.36,0-3.59,2.44-5.71,7a26.09,26.09,0,0,0-2.26,11A26.05,26.05,0,0,0,674,44.58c2.15,4.42,5.24,6.76,5.6,6.76A.33.33,0,0,0,680,51" transform="translate(-0.61)"/><path d="M694.09,31.51c.22-.93,1-4.24,3.56-4.24a3.53,3.53,0,0,1,1.8.47,2.09,2.09,0,0,0-1.73,1.94,1.26,1.26,0,0,0,1.37,1.26A2,2,0,0,0,701,28.85c0-1.86-2.12-2.37-3.34-2.37-2.09,0-3.34,1.91-3.77,2.73A4,4,0,0,0,690,26.48c-3.74,0-5.79,4.64-5.79,5.53,0,.36.36.36.44.36.28,0,.39-.07.46-.39,1.22-3.81,3.59-4.71,4.82-4.71.68,0,1.93.33,1.93,2.41,0,1.11-.61,3.52-1.93,8.55-.58,2.22-1.84,3.73-3.42,3.73a3.48,3.48,0,0,1-1.79-.46,2,2,0,0,0,1.68-1.94,1.23,1.23,0,0,0-1.32-1.26,2,2,0,0,0-2,2.08c0,1.65,1.8,2.37,3.38,2.37,2.37,0,3.66-2.51,3.77-2.73a4,4,0,0,0,3.88,2.73c3.7,0,5.74-4.63,5.74-5.53,0-.36-.32-.36-.43-.36-.32,0-.39.15-.46.4-1.19,3.84-3.63,4.7-4.78,4.7-1.4,0-2-1.15-2-2.37a14.27,14.27,0,0,1,.61-3.16l1.22-4.92" transform="translate(-0.61)"/><path d="M714.2,23.69h7.67c.33,0,.93,0,.93-.6s-.58-.62-.93-.62H714.2v-7.7c0-.33,0-.93-.6-.93s-.62.58-.62.93v7.7h-7.7c-.32,0-.93,0-.93.6s.58.62.93.62H713v7.7c0,.32,0,.93.6.93s.62-.58.62-.93v-7.7" transform="translate(-0.61)"/><path d="M736.78,33.38a26.27,26.27,0,0,0-2.37-11.21c-2.16-4.41-5.24-6.75-5.6-6.75a.34.34,0,0,0-.36.36c0,.11,0,.18.68.83,3.52,3.55,5.57,9.26,5.57,16.77,0,6.14-1.33,12.46-5.79,17-.46.43-.46.5-.46.61a.34.34,0,0,0,.36.36c.36,0,3.59-2.45,5.71-7a26.09,26.09,0,0,0,2.26-10.95" transform="translate(-0.61)"/><path d="M751.25,33.47c0-5.1-.89-12.32-5.6-18.39-.36-.43-2.69-3.16-3.34-3.16-.18,0-.43.07-.43.36a.45.45,0,0,0,.21.36,22.7,22.7,0,0,1,5.54,10.49,43.66,43.66,0,0,1,1.14,10.3,42.27,42.27,0,0,1-1.25,10.81,22.8,22.8,0,0,1-5.32,9.92c-.32.32-.32.39-.32.46,0,.29.25.36.43.36.54,0,2.51-2.19,3-2.69,3.66-4.35,6-10.81,6-18.82" transform="translate(-0.61)"/><line class="cls-3" x1="261.21" y1="59.96" x2="965.45" y2="59.96"/><path d="M265.79,91.86h10c.79,0,.89,0,.89-.75,0-3.56-1.93-7-6.43-7-4.16,0-7.46,3.7-7.46,8.19a8.1,8.1,0,0,0,7.9,8.29,6.12,6.12,0,0,0,6-4.67.42.42,0,0,0-.46-.43c-.33,0-.4.22-.47.51a5.06,5.06,0,0,1-4.85,3.69,4.84,4.84,0,0,1-4.06-2.4c-1.07-1.72-1.07-4.1-1.07-5.39m0-.75c.22-5.35,3.23-6.25,4.45-6.25,3.7,0,4.06,4.85,4.06,6.25Z" transform="translate(-0.61)"/><path d="M288.11,91.72c1.07-1.37,2.44-3.13,3.3-4.06a5.54,5.54,0,0,1,4.28-1.87V84.68c-.94.07-2,.11-2.95.11s-3-.08-3.45-.11v1.11a1,1,0,0,1,1,1.12,2,2,0,0,1-.54,1.25L287.57,91l-2.8-3.62c-.33-.36-.33-.43-.33-.65,0-.54.54-.86,1.26-.9V84.68c-.93,0-3.3.11-3.88.11-.75,0-2.44,0-3.41-.11v1.11c2.51,0,2.55,0,4.24,2.19l3.55,4.64-3.37,4.27a5.75,5.75,0,0,1-4.6,2.15v1.12c.93-.07,2-.11,3-.11s2.55.07,3.41.11V99a1,1,0,0,1-1-1.11c0-.79,1-2,3.23-4.56L289.54,97c.29.4.76,1,.76,1.19S290,99,289,99v1.12c1.08,0,3.09-.11,3.88-.11,1,0,2.37,0,3.45.11V99c-1.94,0-2.59-.07-3.41-1.11l-4.81-6.21" transform="translate(-0.61)"/><path d="M303,96.06v-8a5.41,5.41,0,0,1,4.64-2.87c2.62,0,4.81,3.16,4.81,7.22,0,4.35-2.51,7.36-5.17,7.36a4.47,4.47,0,0,1-3.77-2.19,1.86,1.86,0,0,1-.51-1.51m-.1-9.41V84.28l-5.17.4v1.11c2.55,0,2.8.22,2.8,1.8V104.4c0,1.61-.4,1.61-2.8,1.61v1.12c1.22,0,3.08-.11,4-.11s2.8.07,4.06.11V106c-2.41,0-2.81,0-2.81-1.61V98a4.89,4.89,0,0,0,4.42,2.51,8.09,8.09,0,0,0,8-8.15c0-4.56-3.48-8.12-7.51-8.12A6.44,6.44,0,0,0,302.88,86.65Z" transform="translate(-0.61)"/><path d="M334.49,108.78c0-.11,0-.18-.61-.79-4.49-4.53-5.64-11.32-5.64-16.81,0-6.25,1.36-12.5,5.78-17,.47-.43.47-.5.47-.61a.33.33,0,0,0-.36-.36c-.36,0-3.59,2.44-5.71,7a27.65,27.65,0,0,0,.11,22.15c2.15,4.42,5.24,6.76,5.6,6.76a.33.33,0,0,0,.36-.36" transform="translate(-0.61)"/><path d="M349.68,85.79h3.09c.72,0,1.08,0,1.08-.72,0-.39-.36-.39-1-.39h-3l.76-4.1a34.77,34.77,0,0,1,.86-3.73,2,2,0,0,1,1.69-1.22,2.63,2.63,0,0,1,1.76.65A2,2,0,0,0,353,78.21a1.25,1.25,0,0,0,1.33,1.26,2.06,2.06,0,0,0,2-2.15c0-1.66-1.65-2.48-3.12-2.48-1.22,0-3.48.64-4.56,4.2-.22.75-.32,1.11-1.19,5.64H345c-.68,0-1.07,0-1.07.68,0,.43.32.43,1,.43h2.37L344.58,100c-.65,3.48-1.26,6.75-3.12,6.75a2.56,2.56,0,0,1-1.73-.65,2,2,0,0,0,2-1.94,1.24,1.24,0,0,0-1.33-1.25,2.06,2.06,0,0,0-2,2.15c0,1.62,1.58,2.48,3.06,2.48,2,0,3.41-2.12,4.05-3.48a31.84,31.84,0,0,0,2-6.86l2.16-11.39" transform="translate(-0.61)"/><path d="M369.89,108.78c0-.11,0-.18-.61-.79-4.49-4.53-5.64-11.32-5.64-16.81,0-6.25,1.36-12.5,5.78-17,.47-.43.47-.5.47-.61a.33.33,0,0,0-.36-.36c-.36,0-3.59,2.44-5.71,7a27.65,27.65,0,0,0,.11,22.15c2.15,4.42,5.24,6.76,5.6,6.76a.33.33,0,0,0,.36-.36" transform="translate(-0.61)"/><path d="M383.89,89.31c.22-.93,1.05-4.24,3.56-4.24a3.53,3.53,0,0,1,1.8.47,2.09,2.09,0,0,0-1.73,1.94,1.26,1.26,0,0,0,1.37,1.26,2,2,0,0,0,1.94-2.09c0-1.86-2.12-2.37-3.34-2.37-2.09,0-3.34,1.91-3.77,2.73a4,4,0,0,0-3.88-2.73c-3.74,0-5.79,4.64-5.79,5.53,0,.36.36.36.44.36.28,0,.39-.07.46-.39,1.22-3.81,3.59-4.71,4.82-4.71.68,0,1.93.33,1.93,2.41,0,1.11-.61,3.52-1.93,8.55-.58,2.22-1.84,3.73-3.42,3.73a3.48,3.48,0,0,1-1.79-.46,2,2,0,0,0,1.68-1.94,1.23,1.23,0,0,0-1.32-1.26,2,2,0,0,0-2,2.08c0,1.65,1.8,2.37,3.38,2.37,2.37,0,3.66-2.51,3.77-2.73a4,4,0,0,0,3.88,2.73c3.7,0,5.74-4.63,5.74-5.53,0-.36-.32-.36-.43-.36-.32,0-.39.15-.46.4-1.19,3.84-3.63,4.7-4.78,4.7-1.4,0-2-1.15-2-2.37a14.27,14.27,0,0,1,.61-3.16l1.22-4.92" transform="translate(-0.61)"/><path d="M402.78,91.18A26.27,26.27,0,0,0,400.41,80c-2.16-4.41-5.24-6.75-5.6-6.75a.34.34,0,0,0-.36.36c0,.11,0,.18.68.83,3.52,3.55,5.57,9.26,5.57,16.77,0,6.14-1.33,12.46-5.79,17-.46.43-.46.5-.46.61a.34.34,0,0,0,.36.36c.36,0,3.59-2.45,5.71-7a26.09,26.09,0,0,0,2.26-10.95" transform="translate(-0.61)"/><path d="M418.58,74.59c.18-.72.23-.8.78-.85.12,0,1,0,1.5,0a9.54,9.54,0,0,1,2.81.2c1.13.35,1.18,1.08,1.18,2a12.33,12.33,0,0,1-.18,2l-.05.27c0,.25.18.38.43.38s.42-.23.47-.63l.68-4.78c0-.35-.3-.35-.75-.35H410c-.62,0-.67,0-.85.52l-1.58,4.44a2.67,2.67,0,0,0-.12.45c0,.1,0,.35.42.35s.38-.13.53-.6c1.45-4,2.28-4.26,6.09-4.26h1.05c.75,0,.78,0,.78.25a2.15,2.15,0,0,1-.1.52l-3.31,13.19c-.22.92-.3,1.18-2.93,1.18-.9,0-1.13,0-1.13.55,0,.07.05.35.43.35.7,0,1.45-.08,2.15-.08l2.16,0c.7,0,1.55,0,2.25,0s1.43.08,2.11.08c.2,0,.58,0,.58-.55,0-.35-.26-.35-1-.35-.48,0-1,0-1.46-.06-.85-.07-.9-.17-.9-.47a1.58,1.58,0,0,1,.1-.58l3.31-13.16" transform="translate(-0.61)"/><path d="M442.18,85.79h3.09c.72,0,1.08,0,1.08-.72,0-.39-.36-.39-1-.39h-3l.76-4.1a34.77,34.77,0,0,1,.86-3.73,2,2,0,0,1,1.69-1.22,2.63,2.63,0,0,1,1.76.65,2,2,0,0,0-1.94,1.93,1.25,1.25,0,0,0,1.33,1.26,2.06,2.06,0,0,0,2-2.15c0-1.66-1.65-2.48-3.12-2.48-1.22,0-3.48.64-4.56,4.2-.22.75-.32,1.11-1.19,5.64h-2.48c-.68,0-1.07,0-1.07.68,0,.43.32.43,1,.43h2.37L437.08,100c-.65,3.48-1.26,6.75-3.12,6.75a2.56,2.56,0,0,1-1.73-.65,2,2,0,0,0,2-1.94,1.24,1.24,0,0,0-1.33-1.25,2.06,2.06,0,0,0-2,2.15c0,1.62,1.58,2.48,3.06,2.48,2,0,3.41-2.12,4.05-3.48a31.84,31.84,0,0,0,2-6.86l2.16-11.39" transform="translate(-0.61)"/><path d="M468.29,108.78c0-.11,0-.18-.61-.79-4.49-4.53-5.64-11.32-5.64-16.81,0-6.25,1.36-12.5,5.78-17,.47-.43.47-.5.47-.61a.33.33,0,0,0-.36-.36c-.36,0-3.59,2.44-5.71,7a27.65,27.65,0,0,0,.11,22.15c2.15,4.42,5.24,6.76,5.6,6.76a.33.33,0,0,0,.36-.36" transform="translate(-0.61)"/><path d="M482.29,89.31c.22-.93,1-4.24,3.56-4.24a3.53,3.53,0,0,1,1.8.47,2.09,2.09,0,0,0-1.73,1.94,1.26,1.26,0,0,0,1.37,1.26,2,2,0,0,0,1.94-2.09c0-1.86-2.12-2.37-3.34-2.37-2.09,0-3.34,1.91-3.77,2.73a4,4,0,0,0-3.88-2.73c-3.74,0-5.79,4.64-5.79,5.53,0,.36.36.36.44.36.28,0,.39-.07.46-.39,1.22-3.81,3.59-4.71,4.82-4.71.68,0,1.93.33,1.93,2.41,0,1.11-.61,3.52-1.93,8.55-.58,2.22-1.84,3.73-3.42,3.73A3.48,3.48,0,0,1,473,99.3a2,2,0,0,0,1.68-1.94,1.23,1.23,0,0,0-1.32-1.26,2,2,0,0,0-2,2.08c0,1.65,1.8,2.37,3.38,2.37,2.37,0,3.66-2.51,3.77-2.73a4,4,0,0,0,3.88,2.73c3.7,0,5.74-4.63,5.74-5.53,0-.36-.32-.36-.43-.36-.32,0-.39.15-.46.4-1.19,3.84-3.63,4.7-4.78,4.7-1.4,0-2-1.15-2-2.37a14.27,14.27,0,0,1,.61-3.16l1.22-4.92" transform="translate(-0.61)"/><path d="M502.4,84.09h7.67c.33,0,.93,0,.93-.6s-.58-.62-.93-.62H502.4v-7.7c0-.32,0-.93-.6-.93s-.62.58-.62.93v7.7h-7.7c-.32,0-.93,0-.93.6s.58.62.93.62h7.7v7.7c0,.32,0,.93.6.93s.62-.58.62-.93v-7.7" transform="translate(-0.61)"/><path d="M525,91.18A26.27,26.27,0,0,0,522.61,80c-2.16-4.41-5.24-6.75-5.6-6.75a.34.34,0,0,0-.36.36c0,.11,0,.18.68.83,3.52,3.55,5.57,9.26,5.57,16.77,0,6.14-1.33,12.46-5.79,17-.46.43-.46.5-.46.61a.34.34,0,0,0,.36.36c.36,0,3.59-2.45,5.71-7A26.09,26.09,0,0,0,525,91.18" transform="translate(-0.61)"/><path d="M539,91.18A26.27,26.27,0,0,0,536.61,80c-2.16-4.41-5.24-6.75-5.6-6.75a.34.34,0,0,0-.36.36c0,.11,0,.18.68.83,3.52,3.55,5.57,9.26,5.57,16.77,0,6.14-1.33,12.46-5.79,17-.46.43-.46.5-.46.61a.34.34,0,0,0,.36.36c.36,0,3.59-2.45,5.71-7A26.09,26.09,0,0,0,539,91.18" transform="translate(-0.61)"/><path d="M565.19,91.9h10c.5,0,1.18,0,1.18-.72s-.68-.72-1.18-.72h-10V80.4c0-.5,0-1.18-.72-1.18s-.72.68-.72,1.18V90.46h-10c-.51,0-1.19,0-1.19.72s.68.72,1.19.72h10v10c0,.51,0,1.19.72,1.19s.72-.68.72-1.19v-10" transform="translate(-0.61)"/><path d="M601.42,92.44,588.67,108.2c-.29.36-.32.43-.32.58,0,.39.32.39,1,.39h29.77l3.09-8.94h-.9a9.88,9.88,0,0,1-6.36,5.92,25.53,25.53,0,0,1-8.33,1H591.33l12.46-15.41c.25-.32.32-.43.32-.57s0-.18-.25-.51l-11.67-16h14.22c4.1,0,12.36.26,14.87,7h.9l-3.09-8.4H589.32c-1,0-1,0-1,1.15l13.11,18" transform="translate(-0.61)"/><path d="M645.1,67.77c.25-1,.65-1.78,2.66-1.83.12,0,.5,0,.5-.55a.36.36,0,0,0-.38-.35c-.82,0-1.75.1-2.6.1-.6,0-2.06-.1-2.66-.1-.12,0-.5,0-.5.55,0,.33.33.35.55.35,1.18,0,1.61.4,1.61,1a1.87,1.87,0,0,1-.11.6L641.44,78.5l-6.36-13c-.2-.43-.25-.43-.86-.43h-3.43c-.47,0-.8,0-.8.55,0,.35.3.35.83.35a8.71,8.71,0,0,1,1.6.13l-3.36,13.41c-.22,1-.65,1.7-2.6,1.78a.46.46,0,0,0-.53.52.35.35,0,0,0,.37.38c.83,0,1.76-.1,2.61-.1.6,0,2.06.1,2.66.1a.47.47,0,0,0,.5-.53c0-.35-.3-.37-.58-.37-1.58-.06-1.58-.71-1.58-1.06a2.23,2.23,0,0,1,.1-.62l3.21-12.84,7.32,15c.2.4.3.43.55.43s.4-.08.53-.53l3.48-13.86" transform="translate(-0.61)"/><path d="M668.25,76.49c.4,0,1,0,1-.6s-.58-.62-1-.62H653.31c-.4,0-1,0-1,.6s.57.62,1,.62h14.94" transform="translate(-0.61)"/><path d="M680.4,66.22c0-.68,0-.7-.76-.7a6.81,6.81,0,0,1-4.91,1.6V68a8.31,8.31,0,0,0,3.64-.7V80.1c0,.83,0,1.16-2.51,1.16h-1v.9c.45,0,3.53-.1,4.46-.1.77,0,3.93.07,4.48.1v-.9h-1c-2.5,0-2.5-.33-2.5-1.16V66.22" transform="translate(-0.61)"/><path d="M629.89,112.19c-.43,1.73-1.76,3.18-3.23,3.18a2.67,2.67,0,0,1-.91-.15,1.42,1.42,0,0,0,.86-1.28.93.93,0,0,0-1-.93,1.47,1.47,0,0,0-1.43,1.48c0,1,1,1.58,2.48,1.58a5.42,5.42,0,0,0,5.21-4l2.26-9a3.17,3.17,0,0,0,.12-.88,2.47,2.47,0,0,0-2.68-2.36c-2.78,0-4.38,3.49-4.38,3.84s.35.33.42.33c.3,0,.33-.08.5-.46.63-1.45,1.94-3,3.39-3,.62,0,.85.42.85,1.22a4.2,4.2,0,0,1-.08.76l-2.4,9.6m5.31-16.9a1,1,0,0,0-1-1,1.48,1.48,0,0,0-1.4,1.38,1,1,0,0,0,1,1A1.48,1.48,0,0,0,635.2,95.29Z" transform="translate(-0.61)"/><path d="M656.77,108.05c.33,0,.93,0,.93-.6s-.58-.63-1-.63H640.21c-.38,0-1,0-1,.63s.61.6.93.6h16.59m0-5.51c.37,0,1,0,1-.63s-.6-.6-.93-.6H640.18c-.32,0-.93,0-.93.6s.58.63,1,.63Z" transform="translate(-0.61)"/><path d="M667.9,95c0-.68,0-.7-.76-.7a6.81,6.81,0,0,1-4.91,1.6v.9a8.31,8.31,0,0,0,3.64-.7V108.9c0,.83,0,1.16-2.51,1.16h-1v.9c.45,0,3.53-.1,4.46-.1.77,0,3.93.07,4.48.1v-.9h-1c-2.5,0-2.5-.33-2.5-1.16V95" transform="translate(-0.61)"/><path d="M698.09,91.86h10c.79,0,.89,0,.89-.75,0-3.56-1.93-7-6.43-7-4.16,0-7.46,3.7-7.46,8.19a8.1,8.1,0,0,0,7.9,8.29,6.12,6.12,0,0,0,6-4.67.42.42,0,0,0-.46-.43c-.33,0-.4.22-.47.51a5.06,5.06,0,0,1-4.85,3.69,4.84,4.84,0,0,1-4.06-2.4c-1.07-1.72-1.07-4.1-1.07-5.39m0-.75c.22-5.35,3.23-6.25,4.45-6.25,3.7,0,4.06,4.85,4.06,6.25Z" transform="translate(-0.61)"/><path d="M720.31,91.72c1.07-1.37,2.44-3.13,3.3-4.06a5.54,5.54,0,0,1,4.28-1.87V84.68c-.94.07-2,.11-2.95.11-1.08,0-3-.08-3.45-.11v1.11a1,1,0,0,1,1,1.12,2,2,0,0,1-.54,1.25L719.77,91,717,87.34c-.33-.36-.33-.43-.33-.65,0-.54.54-.86,1.26-.9V84.68c-.93,0-3.3.11-3.88.11-.75,0-2.44,0-3.41-.11v1.11c2.51,0,2.55,0,4.24,2.19l3.55,4.64L715,96.89a5.75,5.75,0,0,1-4.6,2.15v1.12c.93-.07,2.05-.11,3-.11s2.55.07,3.41.11V99a1,1,0,0,1-1-1.11c0-.79,1-2,3.23-4.56L721.74,97c.29.4.76,1,.76,1.19s-.33.86-1.3.89v1.12c1.08,0,3.09-.11,3.88-.11,1,0,2.37,0,3.45.11V99c-1.94,0-2.59-.07-3.41-1.11l-4.81-6.21" transform="translate(-0.61)"/><path d="M735.18,96.06v-8a5.41,5.41,0,0,1,4.64-2.87c2.62,0,4.81,3.16,4.81,7.22,0,4.35-2.51,7.36-5.17,7.36a4.47,4.47,0,0,1-3.77-2.19,1.86,1.86,0,0,1-.51-1.51m-.1-9.41V84.28l-5.17.4v1.11c2.55,0,2.8.22,2.8,1.8V104.4c0,1.61-.4,1.61-2.8,1.61v1.12c1.22,0,3.08-.11,4-.11s2.8.07,4.06.11V106c-2.41,0-2.81,0-2.81-1.61V98a4.89,4.89,0,0,0,4.42,2.51,8.09,8.09,0,0,0,8-8.15c0-4.56-3.48-8.12-7.51-8.12A6.44,6.44,0,0,0,735.08,86.65Z" transform="translate(-0.61)"/><path d="M766.79,108.78c0-.11,0-.18-.61-.79-4.49-4.53-5.64-11.32-5.64-16.81,0-6.25,1.36-12.5,5.78-17,.47-.43.47-.5.47-.61a.33.33,0,0,0-.36-.36c-.36,0-3.59,2.44-5.71,7a27.65,27.65,0,0,0,.11,22.15c2.15,4.42,5.24,6.76,5.6,6.76a.33.33,0,0,0,.36-.36" transform="translate(-0.61)"/><path d="M782,85.79h3.09c.72,0,1.08,0,1.08-.72,0-.39-.36-.39-1-.39h-3l.76-4.1a34.77,34.77,0,0,1,.86-3.73,2,2,0,0,1,1.69-1.22,2.63,2.63,0,0,1,1.76.65,2,2,0,0,0-1.94,1.93,1.25,1.25,0,0,0,1.33,1.26,2.06,2.06,0,0,0,2-2.15c0-1.66-1.65-2.48-3.12-2.48-1.22,0-3.48.64-4.56,4.2-.22.75-.32,1.11-1.19,5.64h-2.48c-.68,0-1.07,0-1.07.68,0,.43.32.43,1,.43h2.37L776.88,100c-.65,3.48-1.26,6.75-3.12,6.75a2.56,2.56,0,0,1-1.73-.65,2,2,0,0,0,2-1.94,1.24,1.24,0,0,0-1.33-1.25,2.06,2.06,0,0,0-2,2.15c0,1.62,1.58,2.48,3.06,2.48,2,0,3.41-2.12,4-3.48a31.84,31.84,0,0,0,2-6.86L782,85.79" transform="translate(-0.61)"/><path d="M802.09,108.78c0-.11,0-.18-.61-.79-4.49-4.53-5.64-11.32-5.64-16.81,0-6.25,1.36-12.5,5.78-17,.47-.43.47-.5.47-.61a.33.33,0,0,0-.36-.36c-.36,0-3.59,2.44-5.71,7a27.65,27.65,0,0,0,.11,22.15c2.15,4.42,5.24,6.76,5.6,6.76a.33.33,0,0,0,.36-.36" transform="translate(-0.61)"/><path d="M816.19,89.31c.22-.93,1-4.24,3.56-4.24a3.53,3.53,0,0,1,1.8.47,2.09,2.09,0,0,0-1.73,1.94,1.26,1.26,0,0,0,1.37,1.26,2,2,0,0,0,1.94-2.09c0-1.86-2.12-2.37-3.34-2.37-2.09,0-3.34,1.91-3.77,2.73a4,4,0,0,0-3.88-2.73c-3.74,0-5.79,4.64-5.79,5.53,0,.36.36.36.44.36.28,0,.39-.07.46-.39,1.22-3.81,3.59-4.71,4.82-4.71.68,0,1.93.33,1.93,2.41,0,1.11-.61,3.52-1.93,8.55-.58,2.22-1.84,3.73-3.42,3.73a3.48,3.48,0,0,1-1.79-.46,2,2,0,0,0,1.68-1.94,1.23,1.23,0,0,0-1.32-1.26,2,2,0,0,0-2,2.08c0,1.65,1.8,2.37,3.38,2.37,2.37,0,3.66-2.51,3.77-2.73a4,4,0,0,0,3.88,2.73c3.7,0,5.74-4.63,5.74-5.53,0-.36-.32-.36-.43-.36-.32,0-.39.15-.46.4-1.19,3.84-3.63,4.7-4.78,4.7-1.4,0-2-1.15-2-2.37a14.27,14.27,0,0,1,.61-3.16l1.22-4.92" transform="translate(-0.61)"/><path d="M835.08,91.18A26.27,26.27,0,0,0,832.71,80c-2.16-4.41-5.24-6.75-5.6-6.75a.34.34,0,0,0-.36.36c0,.11,0,.18.68.83C831,78,833,83.67,833,91.18c0,6.14-1.33,12.46-5.79,17-.46.43-.46.5-.46.61a.34.34,0,0,0,.36.36c.36,0,3.59-2.45,5.71-7a26.09,26.09,0,0,0,2.26-10.95" transform="translate(-0.61)"/><path d="M850.78,74.59c.18-.72.23-.8.78-.85.12,0,1,0,1.5,0a9.54,9.54,0,0,1,2.81.2c1.13.35,1.18,1.08,1.18,2a12.33,12.33,0,0,1-.18,2l0,.27c0,.25.18.38.43.38s.42-.23.47-.63l.68-4.78c0-.35-.3-.35-.75-.35H842.23c-.62,0-.67,0-.85.52l-1.58,4.44a2.67,2.67,0,0,0-.12.45c0,.1.05.35.42.35s.38-.13.53-.6c1.45-4,2.28-4.26,6.09-4.26h1c.75,0,.78,0,.78.25a2.15,2.15,0,0,1-.1.52l-3.31,13.19c-.22.92-.3,1.18-2.93,1.18-.9,0-1.13,0-1.13.55,0,.07,0,.35.43.35.7,0,1.45-.08,2.15-.08l2.16,0c.7,0,1.55,0,2.25,0s1.43.08,2.11.08c.2,0,.58,0,.58-.55,0-.35-.26-.35-1-.35-.48,0-1,0-1.46-.06-.85-.07-.9-.17-.9-.47a1.58,1.58,0,0,1,.1-.58l3.31-13.16" transform="translate(-0.61)"/><path d="M874.38,85.79h3.09c.72,0,1.08,0,1.08-.72,0-.39-.36-.39-1-.39h-3l.76-4.1a34.77,34.77,0,0,1,.86-3.73,2,2,0,0,1,1.69-1.22,2.63,2.63,0,0,1,1.76.65,2,2,0,0,0-1.94,1.93,1.25,1.25,0,0,0,1.33,1.26,2.06,2.06,0,0,0,2-2.15c0-1.66-1.65-2.48-3.12-2.48-1.22,0-3.48.64-4.56,4.2-.22.75-.32,1.11-1.19,5.64h-2.48c-.68,0-1.07,0-1.07.68,0,.43.32.43,1,.43H872L869.28,100c-.65,3.48-1.26,6.75-3.12,6.75a2.56,2.56,0,0,1-1.73-.65,2,2,0,0,0,2-1.94,1.24,1.24,0,0,0-1.33-1.25,2.06,2.06,0,0,0-2,2.15c0,1.62,1.58,2.48,3.06,2.48,2,0,3.41-2.12,4.05-3.48a31.84,31.84,0,0,0,2-6.86l2.16-11.39" transform="translate(-0.61)"/><path d="M900.49,108.78c0-.11,0-.18-.61-.79-4.49-4.53-5.64-11.32-5.64-16.81,0-6.25,1.36-12.5,5.78-17,.47-.43.47-.5.47-.61a.33.33,0,0,0-.36-.36c-.36,0-3.59,2.44-5.71,7a27.65,27.65,0,0,0,.11,22.15c2.15,4.42,5.24,6.76,5.6,6.76a.33.33,0,0,0,.36-.36" transform="translate(-0.61)"/><path d="M914.59,89.31c.22-.93,1-4.24,3.56-4.24a3.53,3.53,0,0,1,1.8.47,2.09,2.09,0,0,0-1.73,1.94,1.26,1.26,0,0,0,1.37,1.26,2,2,0,0,0,1.94-2.09c0-1.86-2.12-2.37-3.34-2.37-2.09,0-3.34,1.91-3.77,2.73a4,4,0,0,0-3.88-2.73c-3.74,0-5.79,4.64-5.79,5.53,0,.36.36.36.44.36.28,0,.39-.07.46-.39,1.22-3.81,3.59-4.71,4.82-4.71.68,0,1.93.33,1.93,2.41,0,1.11-.61,3.52-1.93,8.55-.58,2.22-1.84,3.73-3.42,3.73a3.48,3.48,0,0,1-1.79-.46,2,2,0,0,0,1.68-1.94,1.23,1.23,0,0,0-1.32-1.26,2,2,0,0,0-2,2.08c0,1.65,1.8,2.37,3.38,2.37,2.37,0,3.66-2.51,3.77-2.73a4,4,0,0,0,3.88,2.73c3.7,0,5.74-4.63,5.74-5.53,0-.36-.32-.36-.43-.36-.32,0-.39.15-.46.4-1.19,3.84-3.63,4.7-4.78,4.7-1.4,0-2-1.15-2-2.37a14.27,14.27,0,0,1,.61-3.16l1.22-4.92" transform="translate(-0.61)"/><path d="M928.79,106.79c-.43,1.73-1.76,3.18-3.23,3.18a2.67,2.67,0,0,1-.91-.15,1.42,1.42,0,0,0,.86-1.28.93.93,0,0,0-1-.93,1.47,1.47,0,0,0-1.43,1.48c0,1,1,1.58,2.48,1.58a5.42,5.42,0,0,0,5.21-4l2.26-9a3.17,3.17,0,0,0,.12-.88,2.47,2.47,0,0,0-2.68-2.36c-2.78,0-4.38,3.49-4.38,3.84s.35.33.42.33c.3,0,.33-.08.5-.46.63-1.45,1.94-3,3.39-3,.62,0,.85.42.85,1.22a4.2,4.2,0,0,1-.08.76l-2.4,9.6m5.31-16.9a1,1,0,0,0-1-1,1.48,1.48,0,0,0-1.4,1.38,1,1,0,0,0,1,1A1.48,1.48,0,0,0,934.1,89.89Z" transform="translate(-0.61)"/><path d="M948.58,91.18A26.27,26.27,0,0,0,946.21,80c-2.16-4.41-5.24-6.75-5.6-6.75a.34.34,0,0,0-.36.36c0,.11,0,.18.68.83,3.52,3.55,5.57,9.26,5.57,16.77,0,6.14-1.33,12.46-5.79,17-.46.43-.46.5-.46.61a.34.34,0,0,0,.36.36c.36,0,3.59-2.45,5.71-7a26.09,26.09,0,0,0,2.26-10.95" transform="translate(-0.61)"/><path d="M962.48,91.18A26.27,26.27,0,0,0,960.11,80c-2.16-4.41-5.24-6.75-5.6-6.75a.34.34,0,0,0-.36.36c0,.11,0,.18.68.83,3.52,3.55,5.57,9.26,5.57,16.77,0,6.14-1.33,12.46-5.79,17-.46.43-.46.5-.46.61a.34.34,0,0,0,.36.36c.36,0,3.59-2.45,5.71-7a26.09,26.09,0,0,0,2.26-10.95" transform="translate(-0.61)"/><polyline points="978.58 111.6 970.18 111.6 970.18 113.83 980.81 113.83 980.81 6.12 970.18 6.12 970.18 8.35 978.58 8.35 978.58 111.6"/></g><line class="cls-4" x1="258.31" y1="120" x2="539.77" y2="120"/><line class="cls-4" x1="468.31" y1="2" x2="749.77" y2="2"/><line class="cls-5" x1="693.36" y1="120" x2="964.72" y2="120"/></g></g></svg>
