<svg xmlns="http://www.w3.org/2000/svg" xmlns:xlink="http://www.w3.org/1999/xlink" viewBox="0 0 653.62 54.04"><defs><style>.cls-1{fill:none;}.cls-2{clip-path:url(#clip-path);}.cls-3,.cls-4{fill:#009245;stroke-miterlimit:10;stroke-width:4px;}.cls-3{stroke:#009245;}.cls-4{stroke:#f15a24;}</style><clipPath id="clip-path" transform="translate(0 -0.89)"><rect class="cls-1" x="7" width="643" height="41"/></clipPath></defs><title>score-function-underlined</title><g id="Layer_2" data-name="Layer 2"><g id="Layer_1-2" data-name="Layer 1"><g class="cls-2"><path d="M13.77,24.23c.79.15,3.73.72,3.73,3.31,0,1.83-1.25,3.26-4.05,3.26-3,0-4.31-2-5-5.1-.1-.46-.14-.6-.5-.6s-.46.25-.46.89v4.74c0,.61,0,.87.39.87.18,0,.22,0,.9-.72a6.07,6.07,0,0,1,.72-.83,5.36,5.36,0,0,0,3.95,1.55c4.13,0,5.78-2.41,5.78-5a4.64,4.64,0,0,0-1.51-3.41,7.26,7.26,0,0,0-4.09-1.72c-2-.4-4.42-.87-4.42-2.95,0-1.25.93-2.73,4-2.73,3.95,0,4.13,3.23,4.2,4.35a.39.39,0,0,0,.43.32c.47,0,.47-.18.47-.86V16c0-.61,0-.86-.39-.86-.18,0-.26,0-.72.43a5.58,5.58,0,0,1-.61.58,5.53,5.53,0,0,0-3.38-1c-4.38,0-5.74,2.41-5.74,4.42a3.83,3.83,0,0,0,1.54,3c1.15.93,2.15,1.15,4.74,1.65" transform="translate(0 -0.89)"/><path d="M24.6,23.37c0-5.85,2.95-7.36,4.85-7.36a5.81,5.81,0,0,1,3.84,1.33A1.62,1.62,0,0,0,31.6,19a1.66,1.66,0,1,0,3.31,0c0-2.44-2.73-3.84-5.5-3.84-4.48,0-7.79,3.88-7.79,8.33a8,8,0,0,0,7.72,8.16,5.91,5.91,0,0,0,6-4.67c0-.36-.35-.36-.46-.36-.33,0-.4.14-.47.36-1,3.34-3.37,3.77-4.7,3.77-1.91,0-5.07-1.55-5.07-7.33" transform="translate(0 -0.89)"/><path d="M45.28,30.7a4.7,4.7,0,0,1-4.1-2.41,10.76,10.76,0,0,1-.89-5.06,10.32,10.32,0,0,1,.86-4.92,4.81,4.81,0,0,1,4.09-2.41,4.71,4.71,0,0,1,4.06,2.33,9.92,9.92,0,0,1,.93,5A11,11,0,0,1,49.45,28a4.64,4.64,0,0,1-4.17,2.66m7.94-7.19a8.24,8.24,0,0,0-7.94-8.4,8.23,8.23,0,0,0-8,8.4,8,8,0,1,0,15.91,0Z" transform="translate(0 -0.89)"/><path d="M60.3,19.28v-4l-5,.39v1.11c2.51,0,2.8.26,2.8,2v9.62c0,1.62-.4,1.62-2.8,1.62V31.2c1.4,0,3.08-.11,4.09-.11,1.44,0,3.13,0,4.56.11V30.09h-.75c-2.66,0-2.73-.4-2.73-1.69V22.87c0-3.56,1.51-6.75,4.24-6.75a1,1,0,0,1,.39,0,1.56,1.56,0,0,0-.83,1.4,1.55,1.55,0,1,0,3.09,0,2.44,2.44,0,0,0-2.65-2.19c-2.63,0-3.92,2.4-4.42,4" transform="translate(0 -0.89)"/><path d="M72.29,22.9h10c.79,0,.89,0,.89-.75,0-3.56-1.93-7-6.42-7-4.17,0-7.47,3.7-7.47,8.19a8.11,8.11,0,0,0,7.9,8.3,6.13,6.13,0,0,0,6-4.67.41.41,0,0,0-.46-.43c-.33,0-.4.21-.47.5a5.06,5.06,0,0,1-4.85,3.7,4.85,4.85,0,0,1-4.06-2.41c-1.07-1.72-1.07-4.09-1.07-5.39m0-.75c.22-5.35,3.23-6.25,4.46-6.25,3.7,0,4,4.85,4,6.25Z" transform="translate(0 -0.89)"/><path d="M96.19,39.82c0-.11,0-.18-.61-.79-4.49-4.53-5.64-11.31-5.64-16.81,0-6.25,1.36-12.5,5.78-17,.47-.43.47-.5.47-.61a.33.33,0,0,0-.36-.36c-.36,0-3.59,2.45-5.71,7a26.09,26.09,0,0,0-2.26,11,26.12,26.12,0,0,0,2.37,11.21c2.15,4.41,5.24,6.75,5.6,6.75a.33.33,0,0,0,.36-.36" transform="translate(0 -0.89)"/><path d="M111.38,16.83h3.09c.72,0,1.08,0,1.08-.71,0-.4-.36-.4-1-.4h-3l.75-4.09a34.43,34.43,0,0,1,.86-3.74,2,2,0,0,1,1.69-1.22,2.63,2.63,0,0,1,1.76.65,2,2,0,0,0-1.94,1.94,1.24,1.24,0,0,0,1.33,1.25,2.06,2.06,0,0,0,2-2.15c0-1.65-1.66-2.48-3.13-2.48-1.22,0-3.48.65-4.56,4.2-.22.76-.32,1.12-1.19,5.64h-2.47c-.69,0-1.08,0-1.08.68,0,.43.32.43,1,.43H109L106.28,31c-.65,3.48-1.26,6.75-3.12,6.75a2.58,2.58,0,0,1-1.73-.64,2,2,0,0,0,2-1.94,1.25,1.25,0,0,0-1.33-1.26,2.06,2.06,0,0,0-2,2.15c0,1.62,1.58,2.48,3.06,2.48,2,0,3.41-2.12,4-3.48a32.51,32.51,0,0,0,2-6.86l2.15-11.39" transform="translate(0 -0.89)"/><path d="M131.49,39.82c0-.11,0-.18-.61-.79-4.49-4.53-5.64-11.31-5.64-16.81,0-6.25,1.36-12.5,5.78-17,.47-.43.47-.5.47-.61a.33.33,0,0,0-.36-.36c-.36,0-3.59,2.45-5.71,7a26.09,26.09,0,0,0-2.26,11,26.12,26.12,0,0,0,2.37,11.21c2.15,4.41,5.24,6.75,5.6,6.75a.33.33,0,0,0,.36-.36" transform="translate(0 -0.89)"/><path d="M145.6,20.35c.21-.93,1-4.23,3.55-4.23a3.59,3.59,0,0,1,1.8.46,2.09,2.09,0,0,0-1.73,1.94,1.26,1.26,0,0,0,1.37,1.26,2,2,0,0,0,1.94-2.08c0-1.87-2.12-2.37-3.34-2.37-2.09,0-3.34,1.9-3.77,2.72a4,4,0,0,0-3.88-2.72c-3.74,0-5.78,4.63-5.78,5.53,0,.36.35.36.43.36.28,0,.39-.08.46-.4,1.22-3.81,3.59-4.7,4.82-4.7.68,0,1.94.32,1.94,2.4,0,1.12-.62,3.52-1.94,8.55-.58,2.23-1.84,3.73-3.42,3.73a3.48,3.48,0,0,1-1.79-.46A2,2,0,0,0,138,28.4a1.23,1.23,0,0,0-1.33-1.26,2,2,0,0,0-2,2.08c0,1.66,1.8,2.38,3.38,2.38,2.37,0,3.66-2.52,3.77-2.73a4,4,0,0,0,3.88,2.73c3.7,0,5.74-4.64,5.74-5.54,0-.36-.32-.36-.43-.36-.32,0-.39.15-.46.4-1.19,3.84-3.63,4.7-4.78,4.7-1.4,0-2-1.14-2-2.37a13.86,13.86,0,0,1,.62-3.16l1.22-4.92" transform="translate(0 -0.89)"/><path d="M164.48,22.22A26.2,26.2,0,0,0,162.11,11c-2.15-4.42-5.24-6.76-5.6-6.76a.34.34,0,0,0-.36.36c0,.11,0,.18.68.83,3.52,3.55,5.57,9.27,5.57,16.77,0,6.14-1.33,12.46-5.79,17-.46.43-.46.5-.46.61a.34.34,0,0,0,.36.36c.36,0,3.59-2.44,5.71-7a26.16,26.16,0,0,0,2.26-11" transform="translate(0 -0.89)"/><path d="M175.29,31.16c0-2.37-.9-3.77-2.3-3.77a1.91,1.91,0,1,0,1.26,3.34c.11-.07.14-.11.18-.11s.07,0,.07.54a8.69,8.69,0,0,1-2.44,6c-.4.4-.4.47-.4.58a.37.37,0,0,0,.36.39c.4,0,3.27-2.76,3.27-7" transform="translate(0 -0.89)"/><path d="M197.18,16.83h3.09c.72,0,1.08,0,1.08-.71,0-.4-.36-.4-1-.4h-3l.75-4.09A34.43,34.43,0,0,1,199,7.89a2,2,0,0,1,1.69-1.22,2.63,2.63,0,0,1,1.76.65,2,2,0,0,0-1.94,1.94,1.24,1.24,0,0,0,1.33,1.25,2.06,2.06,0,0,0,2-2.15c0-1.65-1.66-2.48-3.13-2.48-1.22,0-3.48.65-4.56,4.2-.22.76-.32,1.12-1.19,5.64h-2.47c-.69,0-1.08,0-1.08.68,0,.43.32.43,1,.43h2.37L192.08,31c-.65,3.48-1.26,6.75-3.12,6.75a2.58,2.58,0,0,1-1.73-.64,2,2,0,0,0,2-1.94,1.25,1.25,0,0,0-1.33-1.26,2.06,2.06,0,0,0-2,2.15c0,1.62,1.58,2.48,3.06,2.48,2,0,3.41-2.12,4-3.48a32.51,32.51,0,0,0,2-6.86l2.15-11.39" transform="translate(0 -0.89)"/><path d="M217.29,39.82c0-.11,0-.18-.61-.79C212.19,34.5,211,27.72,211,22.22c0-6.25,1.36-12.5,5.78-17,.47-.43.47-.5.47-.61a.33.33,0,0,0-.36-.36c-.36,0-3.59,2.45-5.71,7a26.09,26.09,0,0,0-2.26,11,26.12,26.12,0,0,0,2.37,11.21c2.15,4.41,5.24,6.75,5.6,6.75a.33.33,0,0,0,.36-.36" transform="translate(0 -0.89)"/><path d="M231.3,20.35c.21-.93,1-4.23,3.55-4.23a3.59,3.59,0,0,1,1.8.46,2.09,2.09,0,0,0-1.73,1.94,1.26,1.26,0,0,0,1.37,1.26,2,2,0,0,0,1.94-2.08c0-1.87-2.12-2.37-3.34-2.37-2.09,0-3.34,1.9-3.77,2.72a4,4,0,0,0-3.88-2.72c-3.74,0-5.78,4.63-5.78,5.53,0,.36.35.36.43.36.28,0,.39-.08.46-.4,1.22-3.81,3.59-4.7,4.82-4.7.68,0,1.94.32,1.94,2.4,0,1.12-.62,3.52-1.94,8.55-.58,2.23-1.84,3.73-3.42,3.73a3.48,3.48,0,0,1-1.79-.46,2,2,0,0,0,1.69-1.94,1.23,1.23,0,0,0-1.33-1.26,2,2,0,0,0-2,2.08c0,1.66,1.8,2.38,3.38,2.38,2.37,0,3.66-2.52,3.77-2.73a4,4,0,0,0,3.88,2.73c3.7,0,5.74-4.64,5.74-5.54,0-.36-.32-.36-.43-.36-.32,0-.39.15-.46.4-1.19,3.84-3.63,4.7-4.78,4.7-1.4,0-2-1.14-2-2.37a13.86,13.86,0,0,1,.62-3.16l1.22-4.92" transform="translate(0 -0.89)"/><path d="M251.41,10.74h7.66c.33,0,.93,0,.93-.61s-.57-.62-.93-.62h-7.66V1.81c0-.32,0-.92-.61-.92s-.62.57-.62.92v7.7h-7.7c-.32,0-.92,0-.92.6s.57.63.92.63h7.7v7.69c0,.33,0,.93.6.93s.63-.58.63-.93V10.74" transform="translate(0 -0.89)"/><path d="M274,22.22A26.2,26.2,0,0,0,271.61,11c-2.15-4.42-5.24-6.76-5.6-6.76a.34.34,0,0,0-.36.36c0,.11,0,.18.68.83,3.52,3.55,5.57,9.27,5.57,16.77,0,6.14-1.33,12.46-5.79,17-.46.43-.46.5-.46.61a.34.34,0,0,0,.36.36c.36,0,3.59-2.44,5.71-7a26.16,26.16,0,0,0,2.26-11" transform="translate(0 -0.89)"/><path d="M288,22.22A26.2,26.2,0,0,0,285.61,11c-2.15-4.42-5.24-6.76-5.6-6.76a.34.34,0,0,0-.36.36c0,.11,0,.18.68.83,3.52,3.55,5.57,9.27,5.57,16.77,0,6.14-1.33,12.46-5.79,17-.46.43-.46.5-.46.61a.34.34,0,0,0,.36.36c.36,0,3.59-2.44,5.71-7a26.16,26.16,0,0,0,2.26-11" transform="translate(0 -0.89)"/><path d="M325.74,23c.4-.18.69-.36.69-.79s-.29-.61-.69-.79l-19.89-9.37c-.47-.25-.54-.25-.65-.25a.72.72,0,0,0-.72.71c0,.33.18.54.68.79L324,22.22l-18.86,8.91c-.5.25-.68.47-.68.79a.73.73,0,0,0,.72.72c.11,0,.18,0,.65-.25L325.74,23" transform="translate(0 -0.89)"/><path d="M353.64,23c.4-.18.69-.36.69-.79s-.29-.61-.69-.79l-19.89-9.37c-.47-.25-.54-.25-.65-.25a.72.72,0,0,0-.72.71c0,.33.18.54.68.79l18.86,8.91-18.86,8.91c-.5.25-.68.47-.68.79a.73.73,0,0,0,.72.72c.11,0,.18,0,.65-.25L353.64,23" transform="translate(0 -0.89)"/><path d="M374.77,24.23c.79.15,3.74.72,3.74,3.31,0,1.83-1.26,3.26-4.06,3.26-3,0-4.31-2-5-5.1-.11-.46-.15-.6-.51-.6s-.46.25-.46.89v4.74c0,.61,0,.87.39.87.18,0,.22,0,.9-.72a6.07,6.07,0,0,1,.72-.83,5.36,5.36,0,0,0,3.95,1.55c4.13,0,5.78-2.41,5.78-5a4.64,4.64,0,0,0-1.51-3.41,7.26,7.26,0,0,0-4.09-1.72c-2-.4-4.42-.87-4.42-2.95,0-1.25.93-2.73,4-2.73,3.95,0,4.13,3.23,4.2,4.35a.39.39,0,0,0,.43.32c.47,0,.47-.18.47-.86V16c0-.61,0-.86-.39-.86-.18,0-.26,0-.72.43a5.58,5.58,0,0,1-.61.58,5.53,5.53,0,0,0-3.38-1c-4.38,0-5.74,2.41-5.74,4.42a3.83,3.83,0,0,0,1.54,3c1.15.93,2.15,1.15,4.74,1.65" transform="translate(0 -0.89)"/><path d="M385.6,23.37c0-5.85,2.95-7.36,4.85-7.36a5.81,5.81,0,0,1,3.84,1.33A1.61,1.61,0,0,0,392.61,19a1.65,1.65,0,1,0,3.3,0c0-2.44-2.73-3.84-5.5-3.84-4.48,0-7.79,3.88-7.79,8.33a8,8,0,0,0,7.72,8.16,5.91,5.91,0,0,0,6-4.67c0-.36-.36-.36-.47-.36-.33,0-.4.14-.47.36-1,3.34-3.37,3.77-4.7,3.77-1.91,0-5.07-1.55-5.07-7.33" transform="translate(0 -0.89)"/><path d="M406.28,30.7a4.72,4.72,0,0,1-4.1-2.41,10.76,10.76,0,0,1-.89-5.06,10.32,10.32,0,0,1,.86-4.92,4.81,4.81,0,0,1,4.09-2.41,4.71,4.71,0,0,1,4.06,2.33,9.92,9.92,0,0,1,.93,5,11,11,0,0,1-.78,4.81,4.63,4.63,0,0,1-4.17,2.66m7.94-7.19a8,8,0,1,0-15.91,0,8,8,0,1,0,15.91,0Z" transform="translate(0 -0.89)"/><path d="M421.3,19.28v-4l-5,.39v1.11c2.51,0,2.8.26,2.8,2v9.62c0,1.62-.4,1.62-2.8,1.62V31.2c1.4,0,3.08-.11,4.09-.11,1.44,0,3.13,0,4.56.11V30.09h-.75c-2.66,0-2.73-.4-2.73-1.69V22.87c0-3.56,1.51-6.75,4.24-6.75a1,1,0,0,1,.39,0,1.56,1.56,0,0,0-.83,1.4,1.55,1.55,0,1,0,3.09,0,2.44,2.44,0,0,0-2.65-2.19c-2.63,0-3.92,2.4-4.42,4" transform="translate(0 -0.89)"/><path d="M433.29,22.9h10c.79,0,.9,0,.9-.75,0-3.56-1.94-7-6.43-7-4.17,0-7.47,3.7-7.47,8.19a8.11,8.11,0,0,0,7.9,8.3,6.15,6.15,0,0,0,6-4.67.42.42,0,0,0-.47-.43c-.33,0-.4.21-.47.5a5.06,5.06,0,0,1-4.85,3.7,4.85,4.85,0,0,1-4.06-2.41c-1.07-1.72-1.07-4.09-1.07-5.39m0-.75c.22-5.35,3.24-6.25,4.46-6.25,3.7,0,4.05,4.85,4.05,6.25Z" transform="translate(0 -0.89)"/><path d="M457.19,39.82c0-.11,0-.18-.61-.79-4.49-4.53-5.64-11.31-5.64-16.81,0-6.25,1.36-12.5,5.78-17,.47-.43.47-.5.47-.61a.33.33,0,0,0-.36-.36c-.36,0-3.59,2.45-5.71,7a26.09,26.09,0,0,0-2.26,11,26.12,26.12,0,0,0,2.37,11.21c2.15,4.41,5.24,6.75,5.6,6.75a.33.33,0,0,0,.36-.36" transform="translate(0 -0.89)"/><path d="M472.38,16.83h3.09c.72,0,1.08,0,1.08-.71,0-.4-.36-.4-1-.4h-3l.75-4.09a34.43,34.43,0,0,1,.86-3.74,2,2,0,0,1,1.69-1.22,2.63,2.63,0,0,1,1.76.65,2,2,0,0,0-1.94,1.94,1.24,1.24,0,0,0,1.33,1.25,2.06,2.06,0,0,0,2-2.15c0-1.65-1.66-2.48-3.13-2.48-1.22,0-3.48.65-4.56,4.2-.22.76-.32,1.12-1.19,5.64h-2.47c-.69,0-1.08,0-1.08.68,0,.43.32.43,1,.43H470L467.28,31c-.65,3.48-1.26,6.75-3.12,6.75a2.58,2.58,0,0,1-1.73-.64,2,2,0,0,0,2-1.94,1.25,1.25,0,0,0-1.33-1.26,2.06,2.06,0,0,0-2,2.15c0,1.62,1.58,2.48,3.06,2.48,2,0,3.41-2.12,4-3.48a32.51,32.51,0,0,0,2-6.86l2.15-11.39" transform="translate(0 -0.89)"/><path d="M492.49,39.82c0-.11,0-.18-.61-.79-4.49-4.53-5.64-11.31-5.64-16.81,0-6.25,1.36-12.5,5.78-17,.47-.43.47-.5.47-.61a.33.33,0,0,0-.36-.36c-.36,0-3.59,2.45-5.71,7a26.09,26.09,0,0,0-2.26,11,26.12,26.12,0,0,0,2.37,11.21c2.15,4.41,5.24,6.75,5.6,6.75a.33.33,0,0,0,.36-.36" transform="translate(0 -0.89)"/><path d="M506.6,20.35c.21-.93,1-4.23,3.55-4.23a3.59,3.59,0,0,1,1.8.46,2.09,2.09,0,0,0-1.73,1.94,1.26,1.26,0,0,0,1.37,1.26,2,2,0,0,0,1.94-2.08c0-1.87-2.12-2.37-3.34-2.37-2.09,0-3.34,1.9-3.77,2.72a4,4,0,0,0-3.88-2.72c-3.74,0-5.78,4.63-5.78,5.53,0,.36.35.36.43.36.28,0,.39-.08.46-.4,1.22-3.81,3.59-4.7,4.82-4.7.68,0,1.94.32,1.94,2.4,0,1.12-.62,3.52-1.94,8.55-.58,2.23-1.84,3.73-3.42,3.73a3.48,3.48,0,0,1-1.79-.46A2,2,0,0,0,499,28.4a1.23,1.23,0,0,0-1.33-1.26,2,2,0,0,0-2,2.08c0,1.66,1.8,2.38,3.38,2.38,2.37,0,3.66-2.52,3.77-2.73a4,4,0,0,0,3.88,2.73c3.7,0,5.74-4.64,5.74-5.54,0-.36-.32-.36-.43-.36-.32,0-.39.15-.46.4-1.19,3.84-3.63,4.7-4.78,4.7-1.4,0-2-1.14-2-2.37a13.86,13.86,0,0,1,.62-3.16l1.22-4.92" transform="translate(0 -0.89)"/><path d="M525.48,22.22A26.2,26.2,0,0,0,523.11,11c-2.15-4.42-5.24-6.76-5.6-6.76a.34.34,0,0,0-.36.36c0,.11,0,.18.68.83,3.52,3.55,5.57,9.27,5.57,16.77,0,6.14-1.33,12.46-5.79,17-.46.43-.46.5-.46.61a.34.34,0,0,0,.36.36c.36,0,3.59-2.44,5.71-7a26.16,26.16,0,0,0,2.26-11" transform="translate(0 -0.89)"/><path d="M536.29,31.16c0-2.37-.9-3.77-2.3-3.77a1.91,1.91,0,1,0,1.26,3.34c.11-.07.14-.11.18-.11s.07,0,.07.54a8.69,8.69,0,0,1-2.44,6c-.4.4-.4.47-.4.58a.37.37,0,0,0,.36.39c.4,0,3.27-2.76,3.27-7" transform="translate(0 -0.89)"/><path d="M558.18,16.83h3.09c.72,0,1.08,0,1.08-.71,0-.4-.36-.4-1-.4h-3l.75-4.09A34.43,34.43,0,0,1,560,7.89a2,2,0,0,1,1.69-1.22,2.63,2.63,0,0,1,1.76.65,2,2,0,0,0-1.94,1.94,1.24,1.24,0,0,0,1.33,1.25,2.06,2.06,0,0,0,2-2.15c0-1.65-1.66-2.48-3.13-2.48-1.22,0-3.48.65-4.56,4.2-.22.76-.32,1.12-1.19,5.64h-2.47c-.69,0-1.08,0-1.08.68,0,.43.32.43,1,.43h2.37L553.08,31c-.65,3.48-1.26,6.75-3.12,6.75a2.58,2.58,0,0,1-1.73-.64,2,2,0,0,0,2-1.94,1.25,1.25,0,0,0-1.33-1.26,2.06,2.06,0,0,0-2,2.15c0,1.62,1.58,2.48,3.06,2.48,2,0,3.41-2.12,4-3.48a32.51,32.51,0,0,0,2-6.86l2.15-11.39" transform="translate(0 -0.89)"/><path d="M578.29,39.82c0-.11,0-.18-.61-.79C573.19,34.5,572,27.72,572,22.22c0-6.25,1.36-12.5,5.78-17,.47-.43.47-.5.47-.61a.33.33,0,0,0-.36-.36c-.36,0-3.59,2.45-5.71,7a26.09,26.09,0,0,0-2.26,11,26.12,26.12,0,0,0,2.37,11.21c2.15,4.41,5.24,6.75,5.6,6.75a.33.33,0,0,0,.36-.36" transform="translate(0 -0.89)"/><path d="M592.3,20.35c.21-.93,1-4.23,3.55-4.23a3.59,3.59,0,0,1,1.8.46,2.09,2.09,0,0,0-1.73,1.94,1.26,1.26,0,0,0,1.37,1.26,2,2,0,0,0,1.94-2.08c0-1.87-2.12-2.37-3.34-2.37-2.09,0-3.34,1.9-3.77,2.72a4,4,0,0,0-3.88-2.72c-3.74,0-5.78,4.63-5.78,5.53,0,.36.35.36.43.36.28,0,.39-.08.46-.4,1.22-3.81,3.59-4.7,4.82-4.7.68,0,1.94.32,1.94,2.4,0,1.12-.62,3.52-1.94,8.55-.58,2.23-1.84,3.73-3.42,3.73a3.48,3.48,0,0,1-1.79-.46,2,2,0,0,0,1.69-1.94,1.23,1.23,0,0,0-1.33-1.26,2,2,0,0,0-2,2.08c0,1.66,1.8,2.38,3.38,2.38,2.37,0,3.66-2.52,3.77-2.73a4,4,0,0,0,3.88,2.73c3.7,0,5.74-4.64,5.74-5.54,0-.36-.32-.36-.43-.36-.32,0-.39.15-.46.4-1.19,3.84-3.63,4.7-4.78,4.7-1.4,0-2-1.14-2-2.37a13.86,13.86,0,0,1,.62-3.16l1.22-4.92" transform="translate(0 -0.89)"/><path d="M619.45,10.74c.4,0,1,0,1-.61s-.58-.62-1-.62H604.51c-.4,0-1,0-1,.6s.57.63,1,.63h14.94" transform="translate(0 -0.89)"/><path d="M635.38,22.22A26.2,26.2,0,0,0,633,11c-2.15-4.42-5.24-6.76-5.6-6.76a.34.34,0,0,0-.36.36c0,.11,0,.18.68.83,3.52,3.55,5.57,9.27,5.57,16.77,0,6.14-1.33,12.46-5.79,17-.46.43-.46.5-.46.61a.34.34,0,0,0,.36.36c.36,0,3.59-2.44,5.71-7a26.16,26.16,0,0,0,2.26-11" transform="translate(0 -0.89)"/><path d="M649.38,22.22A26.2,26.2,0,0,0,647,11c-2.15-4.42-5.24-6.76-5.6-6.76a.34.34,0,0,0-.36.36c0,.11,0,.18.68.83,3.52,3.55,5.57,9.27,5.57,16.77,0,6.14-1.33,12.46-5.79,17-.46.43-.46.5-.46.61a.34.34,0,0,0,.36.36c.36,0,3.59-2.44,5.71-7a26.16,26.16,0,0,0,2.26-11" transform="translate(0 -0.89)"/></g><line class="cls-3" y1="52.04" x2="290.01" y2="52.04"/><line class="cls-4" x1="363.62" y1="52.04" x2="653.62" y2="52.04"/></g></g></svg>
